<svg width="10" height="20" viewBox="0 0 10 20" fill="none" xmlns="http://www.w3.org/2000/svg">
<path d="M8.43999 19.3333C8.2408 19.334 8.04399 19.2901 7.86401 19.2047C7.68404 19.1193 7.52548 18.9947 7.39999 18.84L0.959995 10.84C0.763886 10.6014 0.656677 10.3022 0.656677 9.99335C0.656677 9.68451 0.763886 9.38525 0.959995 9.14668L7.62666 1.14668C7.85298 0.874389 8.17819 0.703157 8.53076 0.670651C8.88333 0.638144 9.23437 0.747027 9.50666 0.973345C9.77895 1.19966 9.95018 1.52488 9.98269 1.87745C10.0152 2.23002 9.90631 2.58106 9.67999 2.85334L3.71999 10L9.47999 17.1467C9.64304 17.3424 9.74661 17.5807 9.77845 17.8334C9.81028 18.0862 9.76906 18.3427 9.65965 18.5728C9.55025 18.8028 9.37723 18.9967 9.16109 19.1315C8.94494 19.2663 8.69471 19.3363 8.43999 19.3333Z" fill="#3EC854"/>
</svg>
