<svg width="35" height="36" viewBox="0 0 35 36" fill="none" xmlns="http://www.w3.org/2000/svg">
<path d="M18.5938 33.75C19.8019 33.75 20.7812 32.7426 20.7812 31.5C20.7812 30.2574 19.8019 29.25 18.5938 29.25C17.3856 29.25 16.4062 30.2574 16.4062 31.5C16.4062 32.7426 17.3856 33.75 18.5938 33.75Z" fill="#3EC854"/>
<path d="M8.75 23.1593L14.8597 16.875L16.4062 18.4657L10.2966 24.75L8.75 23.1593Z" fill="#3EC854"/>
<path d="M30.625 18.657L21.2341 9H6.5625V11.25H20.3284L23.6097 14.625L6.5625 32.1593L8.10906 33.75L25.1562 16.2169L29.0762 20.25L25.1562 24.2843L26.7028 25.875L30.625 21.843C31.0354 21.4203 31.2658 20.8474 31.2658 20.25C31.2658 19.6526 31.0354 19.0797 30.625 18.657V18.657Z" fill="#3EC854"/>
<path d="M26.7969 10.125C26.0397 10.125 25.2996 9.89407 24.6701 9.46141C24.0406 9.02876 23.5499 8.4138 23.2602 7.69432C22.9704 6.97483 22.8946 6.18313 23.0423 5.41933C23.19 4.65553 23.5546 3.95394 24.09 3.40327C24.6254 2.8526 25.3075 2.47759 26.05 2.32566C26.7926 2.17373 27.5623 2.25171 28.2618 2.54973C28.9613 2.84775 29.5592 3.35243 29.9798 3.99994C30.4005 4.64746 30.625 5.40874 30.625 6.1875C30.6238 7.23143 30.2202 8.23225 29.5025 8.97042C28.7848 9.70859 27.8118 10.1238 26.7969 10.125ZM26.7969 4.5C26.4724 4.5 26.1552 4.59897 25.8854 4.7844C25.6156 4.96982 25.4053 5.23337 25.2811 5.54172C25.157 5.85007 25.1245 6.18937 25.1878 6.51672C25.2511 6.84406 25.4073 7.14474 25.6368 7.38074C25.8662 7.61675 26.1586 7.77746 26.4768 7.84258C26.7951 7.90769 27.1249 7.87427 27.4247 7.74655C27.7245 7.61883 27.9807 7.40253 28.161 7.12503C28.3413 6.84752 28.4375 6.52126 28.4375 6.1875C28.4369 5.74013 28.2639 5.31126 27.9563 4.99492C27.6488 4.67858 27.2318 4.5006 26.7969 4.5V4.5Z" fill="#3EC854"/>
</svg>
